<svg id="MTM_logotyp" data-name="MTM logotyp" xmlns="http://www.w3.org/2000/svg" xmlns:xlink="http://www.w3.org/1999/xlink" width="240.5" height="99.7" viewBox="0 0 240.5 99.7">
  <defs>
    <clipPath id="clip-path">
      <rect id="Rectangle_55" data-name="Rectangle 55" width="240.5" height="99.7" transform="translate(0 0.3)"/>
    </clipPath>
  </defs>
  <path id="Path_8" data-name="Path 8" d="M144.4,6.8a5.019,5.019,0,0,1,1.2.2,3.7,3.7,0,0,1,1.1.5,2.7,2.7,0,0,1,.8.7,1.489,1.489,0,0,1,.4.9,1.412,1.412,0,0,1-.1.9,1.794,1.794,0,0,1-.5.7,2.622,2.622,0,0,1-.9.5,5.019,5.019,0,0,1-1.2.2,5.853,5.853,0,0,1-1.3-.2,3.7,3.7,0,0,1-1.1-.5,2.7,2.7,0,0,1-.8-.7,3.552,3.552,0,0,1-.4-.9,2.768,2.768,0,0,1,.1-.9,1.344,1.344,0,0,1,.6-.7,2.622,2.622,0,0,1,.9-.5,5.019,5.019,0,0,1,1.2-.2" transform="translate(0 -0.3)"/>
  <path id="Path_9" data-name="Path 9" d="M184,6.8a5.853,5.853,0,0,1,1.3.2,6.117,6.117,0,0,1,1.2.5,3.592,3.592,0,0,1,1,.7,3.114,3.114,0,0,1,.7.9,1.486,1.486,0,0,1,.2.9.908.908,0,0,1-.3.7,1.578,1.578,0,0,1-.8.5,3.73,3.73,0,0,1-1.2.2,5.853,5.853,0,0,1-1.3-.2,6.117,6.117,0,0,1-1.2-.5,3.592,3.592,0,0,1-1-.7,2.361,2.361,0,0,1-.6-.9,1.412,1.412,0,0,1-.1-.9,1.012,1.012,0,0,1,.4-.7,2.177,2.177,0,0,1,.8-.5,1.69,1.69,0,0,1,.9-.2" transform="translate(0 -0.3)"/>
  <path id="Path_10" data-name="Path 10" d="M95.7,6.8a5.019,5.019,0,0,1,1.2.2,2.622,2.622,0,0,1,.9.5,4.349,4.349,0,0,1,.6.7,1.337,1.337,0,0,1,.1.9,1.8,1.8,0,0,1-.4.9,2.7,2.7,0,0,1-.8.7,3.7,3.7,0,0,1-1.1.5,4,4,0,0,1-2.5,0,1.934,1.934,0,0,1-.9-.5,1.794,1.794,0,0,1-.5-.7,2.769,2.769,0,0,1-.1-.9,3.552,3.552,0,0,1,.4-.9,2.7,2.7,0,0,1,.8-.7A3.7,3.7,0,0,1,94.5,7a5.02,5.02,0,0,1,1.2-.2" transform="translate(0 -0.3)"/>
  <path id="Path_11" data-name="Path 11" d="M85.8,6.8a3.6,3.6,0,0,1,1.1.2,4.053,4.053,0,0,1,.9.5,1.794,1.794,0,0,1,.5.7,2.483,2.483,0,0,1,.1.9,3.552,3.552,0,0,1-.4.9,2.7,2.7,0,0,1-.8.7,3.7,3.7,0,0,1-1.1.5,4,4,0,0,1-2.5,0,1.934,1.934,0,0,1-.9-.5,1.794,1.794,0,0,1-.5-.7,1.388,1.388,0,0,1,0-.9,2.044,2.044,0,0,1,.5-.9,2.7,2.7,0,0,1,.8-.7A3.7,3.7,0,0,1,84.6,7a5.019,5.019,0,0,1,1.2-.2" transform="translate(0 -0.3)"/>
  <path id="Path_12" data-name="Path 12" d="M66,6.8a3.6,3.6,0,0,1,1.1.2,2.177,2.177,0,0,1,.8.5,1.612,1.612,0,0,1,.4.7,1.412,1.412,0,0,1-.1.9,2.361,2.361,0,0,1-.6.9,5.5,5.5,0,0,1-.9.7,6.117,6.117,0,0,1-1.2.5,5.853,5.853,0,0,1-1.3.2,5.019,5.019,0,0,1-1.2-.2,2.177,2.177,0,0,1-.8-.5,1.612,1.612,0,0,1-.4-.7,2.769,2.769,0,0,1,.1-.9,2.361,2.361,0,0,1,.6-.9,5.5,5.5,0,0,1,.9-.7A12.129,12.129,0,0,1,64.8,7,5.019,5.019,0,0,1,66,6.8" transform="translate(0 -0.3)"/>
  <path id="Path_13" data-name="Path 13" d="M115.5,6.8a5.019,5.019,0,0,1,1.2.2,3.128,3.128,0,0,1,1,.5,2.336,2.336,0,0,1,.7.7,1.344,1.344,0,0,1,.2.9,2.388,2.388,0,0,1-.2.9,2.336,2.336,0,0,1-.7.7,3.128,3.128,0,0,1-1,.5,5.019,5.019,0,0,1-1.2.2,4.3,4.3,0,0,1-1.2-.2,3.128,3.128,0,0,1-1-.5,1.344,1.344,0,0,1-.6-.7,2.92,2.92,0,0,1-.2-.9,1.613,1.613,0,0,1,.3-.9,2.336,2.336,0,0,1,.7-.7,3.128,3.128,0,0,1,1-.5,2.509,2.509,0,0,1,1-.2" transform="translate(0 -0.3)"/>
  <path id="Path_14" data-name="Path 14" d="M105.6,6.8a5.019,5.019,0,0,1,1.2.2,1.934,1.934,0,0,1,.9.5,1.344,1.344,0,0,1,.6.7,2.388,2.388,0,0,1,.2.9,1.613,1.613,0,0,1-.3.9,2.336,2.336,0,0,1-.7.7,4.671,4.671,0,0,1-1,.5,5.067,5.067,0,0,1-1.3.2,4.3,4.3,0,0,1-1.2-.2,3.128,3.128,0,0,1-1-.5,1.344,1.344,0,0,1-.6-.7,1.412,1.412,0,0,1-.1-.9,1.8,1.8,0,0,1,.4-.9,2.336,2.336,0,0,1,.7-.7,4.671,4.671,0,0,1,1-.5,5.019,5.019,0,0,1,1.2-.2" transform="translate(0 -0.3)"/>
  <path id="Path_15" data-name="Path 15" d="M124.7,6.8a5.019,5.019,0,0,1,1.2.2,3.128,3.128,0,0,1,1,.5,2.336,2.336,0,0,1,.7.7,1.4,1.4,0,0,1,.3.9,1.486,1.486,0,0,1-.2.9c-.1.3-.4.5-.6.7a3.128,3.128,0,0,1-1,.5,5.019,5.019,0,0,1-1.2.2,4.3,4.3,0,0,1-1.2-.2,3.128,3.128,0,0,1-1-.5,2.336,2.336,0,0,1-.7-.7,1.613,1.613,0,0,1-.3-.9,2.92,2.92,0,0,1,.2-.9,4.349,4.349,0,0,1,.6-.7,3.128,3.128,0,0,1,1-.5,3.73,3.73,0,0,1,1.2-.2" transform="translate(0 -0.3)"/>
  <path id="Path_16" data-name="Path 16" d="M56.1,6.8a3.6,3.6,0,0,1,1.1.2,2.177,2.177,0,0,1,.8.5,1.612,1.612,0,0,1,.4.7,2.769,2.769,0,0,1-.1.9,2.361,2.361,0,0,1-.6.9,3.591,3.591,0,0,1-1,.7,6.117,6.117,0,0,1-1.2.5,5.853,5.853,0,0,1-1.3.2,5.019,5.019,0,0,1-1.2-.2,2.177,2.177,0,0,1-.8-.5.908.908,0,0,1-.3-.7,1.486,1.486,0,0,1,.2-.9,2.757,2.757,0,0,1,.7-.9,3.591,3.591,0,0,1,1-.7,2.344,2.344,0,0,1,1-.5,6.882,6.882,0,0,1,1.3-.2" transform="translate(0 -0.3)"/>
  <path id="Path_17" data-name="Path 17" d="M134.6,6.8a5.019,5.019,0,0,1,1.2.2,3.128,3.128,0,0,1,1,.5,2.7,2.7,0,0,1,.8.7,2.471,2.471,0,0,1,.4.9,2.768,2.768,0,0,1-.1.9,1.344,1.344,0,0,1-.6.7,4.054,4.054,0,0,1-.9.5,5.019,5.019,0,0,1-1.2.2,5.853,5.853,0,0,1-1.3-.2,5.36,5.36,0,0,1-1.1-.5,1.575,1.575,0,0,1-.7-.7,1.613,1.613,0,0,1-.3-.9,1.486,1.486,0,0,1,.2-.9,1.344,1.344,0,0,1,.6-.7,4.054,4.054,0,0,1,.9-.5,2.676,2.676,0,0,1,1.1-.2" transform="translate(0 -0.3)"/>
  <path id="Path_18" data-name="Path 18" d="M154.3,6.8a5.019,5.019,0,0,1,1.2.2,3.7,3.7,0,0,1,1.1.5,5.5,5.5,0,0,1,.9.7,2.622,2.622,0,0,1,.5.9,1.387,1.387,0,0,1,0,.9,1.794,1.794,0,0,1-.5.7,1.934,1.934,0,0,1-.9.5,4.3,4.3,0,0,1-1.2.2,5.853,5.853,0,0,1-1.3-.2,3.7,3.7,0,0,1-1.1-.5,2.7,2.7,0,0,1-.8-.7,1.8,1.8,0,0,1-.4-.9,1.412,1.412,0,0,1,.1-.9,1.794,1.794,0,0,1,.5-.7,1.934,1.934,0,0,1,.9-.5,3.553,3.553,0,0,1,1-.2" transform="translate(0 -0.3)"/>
  <path id="Path_19" data-name="Path 19" d="M174.1,6.8a5.853,5.853,0,0,1,1.3.2,6.117,6.117,0,0,1,1.2.5,2.178,2.178,0,0,1,.9.7,1.8,1.8,0,0,1,.6.9,1.412,1.412,0,0,1,.1.9,1.012,1.012,0,0,1-.4.7,2.177,2.177,0,0,1-.8.5,3.73,3.73,0,0,1-1.2.2,5.853,5.853,0,0,1-1.3-.2,6.117,6.117,0,0,1-1.2-.5,2.178,2.178,0,0,1-.9-.7,2.361,2.361,0,0,1-.6-.9,2.768,2.768,0,0,1-.1-.9,1.612,1.612,0,0,1,.4-.7,2.177,2.177,0,0,1,.8-.5,5.019,5.019,0,0,1,1.2-.2" transform="translate(0 -0.3)"/>
  <path id="Path_20" data-name="Path 20" d="M187.3,14a6.753,6.753,0,0,1,1.4.2,5.024,5.024,0,0,1,1.3.5,4.44,4.44,0,0,1,1.1.8,3.915,3.915,0,0,1,.8,1,1.978,1.978,0,0,1,.2,1,1.136,1.136,0,0,1-.3.8,5.547,5.547,0,0,1-.8.6,5.067,5.067,0,0,1-1.3.2,7.719,7.719,0,0,1-1.5-.2,4.235,4.235,0,0,1-1.4-.6,4.44,4.44,0,0,1-1.1-.8,3.047,3.047,0,0,1-.7-1,1.978,1.978,0,0,1-.2-1,1.235,1.235,0,0,1,.4-.8,2.177,2.177,0,0,1,.8-.5,6.882,6.882,0,0,1,1.3-.2" transform="translate(0 -0.3)"/>
  <path id="Path_21" data-name="Path 21" d="M124.9,14a5.067,5.067,0,0,1,1.3.2,3.7,3.7,0,0,1,1.1.5,3.044,3.044,0,0,1,.8.8,1.689,1.689,0,0,1,.3,1,1.645,1.645,0,0,1-.2,1,2.7,2.7,0,0,1-.7.8,10.908,10.908,0,0,1-1.1.6,5,5,0,0,1-2.8,0,2.384,2.384,0,0,1-1.1-.6,3.044,3.044,0,0,1-.8-.8,1.929,1.929,0,0,1-.3-1,1.689,1.689,0,0,1,.3-1,2.7,2.7,0,0,1,.7-.8,3.7,3.7,0,0,1,1.1-.5,7.844,7.844,0,0,1,1.4-.2" transform="translate(0 -0.3)"/>
  <path id="Path_22" data-name="Path 22" d="M52.9,14a3.73,3.73,0,0,1,1.2.2,1.578,1.578,0,0,1,.8.5,2.01,2.01,0,0,1,.4.8,1.978,1.978,0,0,1-.2,1,3.592,3.592,0,0,1-.7,1,4.44,4.44,0,0,1-1.1.8c-.4.2-.9.4-1.4.6a7.719,7.719,0,0,1-1.5.2,5.067,5.067,0,0,1-1.3-.2,1.242,1.242,0,0,1-.8-.6,2.01,2.01,0,0,1-.4-.8,1.8,1.8,0,0,1,.2-1,2.539,2.539,0,0,1,.8-1,4.44,4.44,0,0,1,1.1-.8,6.944,6.944,0,0,1,1.3-.5,9.971,9.971,0,0,1,1.6-.2" transform="translate(0 -0.3)"/>
  <path id="Path_23" data-name="Path 23" d="M73.7,14a5.067,5.067,0,0,1,1.3.2,1.934,1.934,0,0,1,.9.5,2.177,2.177,0,0,1,.5.8,1.7,1.7,0,0,1,0,1,2.075,2.075,0,0,1-.6,1,3.915,3.915,0,0,1-1,.8c-.4.2-.8.4-1.3.6a7.844,7.844,0,0,1-1.4.2,5.067,5.067,0,0,1-1.3-.2,1.456,1.456,0,0,1-.9-.6,2.177,2.177,0,0,1-.5-.8,1.183,1.183,0,0,1,.1-1,2.075,2.075,0,0,1,.6-1,3.915,3.915,0,0,1,1-.8,5.023,5.023,0,0,1,1.3-.5,4.438,4.438,0,0,1,1.3-.2" transform="translate(0 -0.3)"/>
  <path id="Path_24" data-name="Path 24" d="M94.5,14a5.067,5.067,0,0,1,1.3.2,3.128,3.128,0,0,1,1,.5,1.555,1.555,0,0,1,.6.8,1.645,1.645,0,0,1,.1,1,3,3,0,0,1-.4,1,2.361,2.361,0,0,1-.9.8l-1.2.6a5.9,5.9,0,0,1-1.4.2,5.067,5.067,0,0,1-1.3-.2,2.075,2.075,0,0,1-1-.6,1.555,1.555,0,0,1-.6-.8,3.4,3.4,0,0,1-.1-1,1.905,1.905,0,0,1,.5-1,2.361,2.361,0,0,1,.9-.8,4.328,4.328,0,0,1,1.2-.5,5.067,5.067,0,0,1,1.3-.2" transform="translate(0 -0.3)"/>
  <path id="Path_25" data-name="Path 25" d="M84.1,14a5.067,5.067,0,0,1,1.3.2,3.128,3.128,0,0,1,1,.5,2.407,2.407,0,0,1,.6.8,3.083,3.083,0,0,1,.1,1,1.905,1.905,0,0,1-.5,1,3.45,3.45,0,0,1-.9.8l-1.2.6a6.753,6.753,0,0,1-1.4.2,5.067,5.067,0,0,1-1.3-.2,2.075,2.075,0,0,1-1-.6,1.374,1.374,0,0,1-.5-.8,1.7,1.7,0,0,1,0-1,3.128,3.128,0,0,1,.5-1,6.47,6.47,0,0,1,.9-.8,6.117,6.117,0,0,1,1.2-.5,3.265,3.265,0,0,1,1.2-.2" transform="translate(0 -0.3)"/>
  <path id="Path_26" data-name="Path 26" d="M115.3,14a5.067,5.067,0,0,1,1.3.2,3.7,3.7,0,0,1,1.1.5,1.779,1.779,0,0,1,.7.8,1.817,1.817,0,0,1,0,2,2.047,2.047,0,0,1-.8.8,10.908,10.908,0,0,1-1.1.6,5.9,5.9,0,0,1-1.4.2,6.753,6.753,0,0,1-1.4-.2,2.384,2.384,0,0,1-1.1-.6,2.7,2.7,0,0,1-.7-.8,1.8,1.8,0,0,1-.2-1,1.689,1.689,0,0,1,.3-1,3.043,3.043,0,0,1,.8-.8,3.7,3.7,0,0,1,1.1-.5,6.752,6.752,0,0,1,1.4-.2" transform="translate(0 -0.3)"/>
  <path id="Path_27" data-name="Path 27" d="M156.1,14a6.753,6.753,0,0,1,1.4.2,4.328,4.328,0,0,1,1.2.5,3.915,3.915,0,0,1,1,.8,1.905,1.905,0,0,1,.5,1,1.7,1.7,0,0,1,0,1,2.177,2.177,0,0,1-.5.8,8.8,8.8,0,0,1-1,.6,5.067,5.067,0,0,1-1.3.2,5.9,5.9,0,0,1-1.4-.2,2.281,2.281,0,0,1-1.2-.6,2.361,2.361,0,0,1-.9-.8,4.672,4.672,0,0,1-.5-1,1.7,1.7,0,0,1,0-1,1.555,1.555,0,0,1,.6-.8,3.128,3.128,0,0,1,1-.5,3.087,3.087,0,0,1,1.1-.2" transform="translate(0 -0.3)"/>
  <path id="Path_28" data-name="Path 28" d="M145.7,14a6.753,6.753,0,0,1,1.4.2,6.117,6.117,0,0,1,1.2.5,2.361,2.361,0,0,1,.9.8,3.128,3.128,0,0,1,.5,1,1.645,1.645,0,0,1-.1,1,1.555,1.555,0,0,1-.6.8,8.8,8.8,0,0,1-1,.6,5.067,5.067,0,0,1-1.3.2,5.9,5.9,0,0,1-1.4-.2,2.725,2.725,0,0,1-1.2-.6,2.361,2.361,0,0,1-.9-.8,2.112,2.112,0,0,1-.4-1,1.645,1.645,0,0,1,.1-1,1.555,1.555,0,0,1,.6-.8,3.128,3.128,0,0,1,1-.5,4.3,4.3,0,0,1,1.2-.2" transform="translate(0 -0.3)"/>
  <path id="Path_29" data-name="Path 29" d="M166.5,14a6.753,6.753,0,0,1,1.4.2,5.024,5.024,0,0,1,1.3.5,3.915,3.915,0,0,1,1,.8,2.075,2.075,0,0,1,.6,1,3.751,3.751,0,0,1,.1,1,1.374,1.374,0,0,1-.5.8,7.018,7.018,0,0,1-.9.6,5.067,5.067,0,0,1-1.3.2,5.9,5.9,0,0,1-1.4-.2,3.1,3.1,0,0,1-1.3-.6,3.916,3.916,0,0,1-1-.8,2.664,2.664,0,0,1-.6-1,1.7,1.7,0,0,1,0-1,2.177,2.177,0,0,1,.5-.8,1.934,1.934,0,0,1,.9-.5,4.3,4.3,0,0,1,1.2-.2" transform="translate(0 -0.3)"/>
  <path id="Path_30" data-name="Path 30" d="M176.9,14a6.753,6.753,0,0,1,1.4.2,5.024,5.024,0,0,1,1.3.5,4.44,4.44,0,0,1,1.1.8,3.591,3.591,0,0,1,.7,1,1.978,1.978,0,0,1,.2,1,1.234,1.234,0,0,1-.4.8,3.49,3.49,0,0,1-.9.6,5.067,5.067,0,0,1-1.3.2,7.719,7.719,0,0,1-1.5-.2,3.1,3.1,0,0,1-1.3-.6,4.44,4.44,0,0,1-1.1-.8,2.664,2.664,0,0,1-.6-1,1.8,1.8,0,0,1-.1-1,2.01,2.01,0,0,1,.4-.8,1.934,1.934,0,0,1,.9-.5,5.02,5.02,0,0,1,1.2-.2" transform="translate(0 -0.3)"/>
  <path id="Path_31" data-name="Path 31" d="M63.3,14a3.73,3.73,0,0,1,1.2.2,1.934,1.934,0,0,1,.9.5,1.235,1.235,0,0,1,.4.8,1.8,1.8,0,0,1-.1,1,2.075,2.075,0,0,1-.6,1,3.134,3.134,0,0,1-1.1.8c-.4.2-.9.4-1.3.6a7.719,7.719,0,0,1-1.5.2,5.067,5.067,0,0,1-1.3-.2,1.456,1.456,0,0,1-.9-.6,1.234,1.234,0,0,1-.4-.8,3.4,3.4,0,0,1,.1-1,2.286,2.286,0,0,1,.7-1,4.44,4.44,0,0,1,1.1-.8,5.023,5.023,0,0,1,1.3-.5,7.719,7.719,0,0,1,1.5-.2" transform="translate(0 -0.3)"/>
  <path id="Path_32" data-name="Path 32" d="M115.1,21.9a7.719,7.719,0,0,1,1.5.2,4.494,4.494,0,0,1,1.2.6,6.47,6.47,0,0,1,.8.9,2.55,2.55,0,0,1,0,2.4,3.915,3.915,0,0,1-.8,1,5.388,5.388,0,0,1-1.3.7,4.013,4.013,0,0,1-1.5.3,6.8,6.8,0,0,1-1.5-.2,3.458,3.458,0,0,1-1.2-.7,3.915,3.915,0,0,1-.8-1,1.721,1.721,0,0,1-.2-1.2,2.843,2.843,0,0,1,.4-1.2,1.962,1.962,0,0,1,.9-.9,3.379,3.379,0,0,1,1.2-.6,2.062,2.062,0,0,1,1.3-.3" transform="translate(0 -0.3)"/>
  <path id="Path_33" data-name="Path 33" d="M49.3,21.9a5.9,5.9,0,0,1,1.4.2,2.034,2.034,0,0,1,.9.6,1.8,1.8,0,0,1,.4.9,2.537,2.537,0,0,1-.2,1.2A8.342,8.342,0,0,1,51,26a6.42,6.42,0,0,1-1.3,1,10.092,10.092,0,0,1-1.5.7,4.671,4.671,0,0,1-1.7.3,5.9,5.9,0,0,1-1.4-.2,2.178,2.178,0,0,1-.9-.7,3,3,0,0,1-.4-1,2.663,2.663,0,0,1,.3-1.2,4.7,4.7,0,0,1,.9-1.2,3.805,3.805,0,0,1,1.3-.9,4.714,4.714,0,0,1,1.5-.6,3.653,3.653,0,0,1,1.5-.3" transform="translate(0 -0.3)"/>
  <path id="Path_34" data-name="Path 34" d="M60.2,21.9a5.9,5.9,0,0,1,1.4.2,3.328,3.328,0,0,1,1,.6,4.053,4.053,0,0,1,.5.9,2.462,2.462,0,0,1-.1,1.2,3.746,3.746,0,0,1-.7,1.2,4,4,0,0,1-1.2,1,10.092,10.092,0,0,1-1.5.7,5.079,5.079,0,0,1-1.7.3,5.9,5.9,0,0,1-1.4-.2,3.592,3.592,0,0,1-1-.7,1.777,1.777,0,0,1-.4-1,2.537,2.537,0,0,1,.2-1.2,4.184,4.184,0,0,1,.8-1.2,2.73,2.73,0,0,1,1.2-.9,3.387,3.387,0,0,1,1.5-.6,3.194,3.194,0,0,1,1.4-.3" transform="translate(0 -0.3)"/>
  <path id="Path_35" data-name="Path 35" d="M71.2,21.9a5.9,5.9,0,0,1,1.4.2,2.424,2.424,0,0,1,1,.6,2.044,2.044,0,0,1,.5.9,2.438,2.438,0,0,1,0,1.2,3.379,3.379,0,0,1-.6,1.2,5.241,5.241,0,0,1-1.1,1,6.11,6.11,0,0,1-1.4.7,4.529,4.529,0,0,1-1.6.3,5.9,5.9,0,0,1-1.4-.2,2.552,2.552,0,0,1-1-.7,1.905,1.905,0,0,1-.5-1,2.462,2.462,0,0,1,.1-1.2,3.746,3.746,0,0,1,.7-1.2,3.126,3.126,0,0,1,1.1-.9,3.506,3.506,0,0,1,1.4-.6,3.194,3.194,0,0,1,1.4-.3" transform="translate(0 -0.3)"/>
  <path id="Path_36" data-name="Path 36" d="M93.1,21.9a5.9,5.9,0,0,1,1.4.2,3.88,3.88,0,0,1,1.1.6,5.5,5.5,0,0,1,.7.9,2.462,2.462,0,0,1,.1,1.2,3.08,3.08,0,0,1-.5,1.2,3.178,3.178,0,0,1-1,1,8.265,8.265,0,0,1-1.3.7A4.146,4.146,0,0,1,92,28a7.719,7.719,0,0,1-1.5-.2,4.129,4.129,0,0,1-1.1-.7,2.075,2.075,0,0,1-.6-1,2.462,2.462,0,0,1-.1-1.2,6.117,6.117,0,0,1,.5-1.2,2.836,2.836,0,0,1,1-.9,3.1,3.1,0,0,1,1.3-.6,4.973,4.973,0,0,1,1.6-.3" transform="translate(0 -0.3)"/>
  <path id="Path_37" data-name="Path 37" d="M125.2,21.9a7.719,7.719,0,0,1,1.5.2,3.369,3.369,0,0,1,1.2.6,3.819,3.819,0,0,1,.9.9,5.637,5.637,0,0,1,.4,1.2A5.02,5.02,0,0,1,129,26a2.539,2.539,0,0,1-.8,1,3.458,3.458,0,0,1-1.2.7,4.013,4.013,0,0,1-1.5.3,6.8,6.8,0,0,1-1.5-.2,5.388,5.388,0,0,1-1.3-.7,2.539,2.539,0,0,1-.8-1,2.55,2.55,0,0,1,0-2.4,2.361,2.361,0,0,1,.8-.9,2.281,2.281,0,0,1,1.2-.6,2.5,2.5,0,0,1,1.3-.3" transform="translate(0 -0.3)"/>
  <path id="Path_38" data-name="Path 38" d="M158.1,21.9a7.719,7.719,0,0,1,1.5.2,5.91,5.91,0,0,1,1.4.6,10.628,10.628,0,0,1,1.1.9,3.379,3.379,0,0,1,.6,1.2,2.437,2.437,0,0,1,0,1.2,2.075,2.075,0,0,1-.6,1,2.979,2.979,0,0,1-1.1.7,3.339,3.339,0,0,1-1.5.3,8.752,8.752,0,0,1-1.6-.2,6.109,6.109,0,0,1-1.4-.7,5.242,5.242,0,0,1-1.1-1,3.379,3.379,0,0,1-.6-1.2,2.437,2.437,0,0,1,0-1.2,1.456,1.456,0,0,1,.6-.9,2.075,2.075,0,0,1,1-.6,6.093,6.093,0,0,1,1.7-.3" transform="translate(0 -0.3)"/>
  <path id="Path_39" data-name="Path 39" d="M147.1,21.9a7.719,7.719,0,0,1,1.5.2,5.171,5.171,0,0,1,1.3.6,9.017,9.017,0,0,1,1,.9,2.078,2.078,0,0,1,.5,1.2,1.672,1.672,0,0,1-.1,1.2,2.075,2.075,0,0,1-.6,1,4.129,4.129,0,0,1-1.1.7,3.339,3.339,0,0,1-1.5.3,8.752,8.752,0,0,1-1.6-.2,6.109,6.109,0,0,1-1.4-.7,4.741,4.741,0,0,1-1-1,3.08,3.08,0,0,1-.5-1.2,2.462,2.462,0,0,1,.1-1.2,1.6,1.6,0,0,1,.7-.9,2.384,2.384,0,0,1,1.1-.6,5.5,5.5,0,0,1,1.6-.3" transform="translate(0 -0.3)"/>
  <path id="Path_40" data-name="Path 40" d="M169.1,21.9a7.719,7.719,0,0,1,1.5.2,5.91,5.91,0,0,1,1.4.6,10.628,10.628,0,0,1,1.1.9,2.925,2.925,0,0,1,.7,1.2,2.462,2.462,0,0,1,.1,1.2,1.905,1.905,0,0,1-.5,1,3.592,3.592,0,0,1-1,.7,3.194,3.194,0,0,1-1.4.3,8.752,8.752,0,0,1-1.6-.2,6.109,6.109,0,0,1-1.4-.7,5.242,5.242,0,0,1-1.1-1,7.458,7.458,0,0,1-.7-1.2,2.437,2.437,0,0,1,0-1.2,1.934,1.934,0,0,1,.5-.9,2.075,2.075,0,0,1,1-.6,3.194,3.194,0,0,1,1.4-.3" transform="translate(0 -0.3)"/>
  <path id="Path_41" data-name="Path 41" d="M180,21.9a8.752,8.752,0,0,1,1.6.2,9.385,9.385,0,0,1,1.5.6,6.233,6.233,0,0,1,1.2.9,8.341,8.341,0,0,1,.8,1.2,2.537,2.537,0,0,1,.2,1.2,1.777,1.777,0,0,1-.4,1,2.552,2.552,0,0,1-1,.7,3.194,3.194,0,0,1-1.4.3,8.752,8.752,0,0,1-1.6-.2,10.092,10.092,0,0,1-1.5-.7,4,4,0,0,1-1.2-1,3.745,3.745,0,0,1-.7-1.2,1.672,1.672,0,0,1-.1-1.2,1.346,1.346,0,0,1,.5-.9,1.7,1.7,0,0,1,1-.6,1.609,1.609,0,0,1,1.1-.3" transform="translate(0 -0.3)"/>
  <path id="Path_42" data-name="Path 42" d="M191,21.9a8.752,8.752,0,0,1,1.6.2,9.385,9.385,0,0,1,1.5.6,14.63,14.63,0,0,1,1.3.9,4.7,4.7,0,0,1,.9,1.2,2.663,2.663,0,0,1,.3,1.2,1.284,1.284,0,0,1-.4,1,2.178,2.178,0,0,1-.9.7,3.194,3.194,0,0,1-1.4.3,8.752,8.752,0,0,1-1.6-.2,6.893,6.893,0,0,1-1.5-.7,6.42,6.42,0,0,1-1.3-1,4.184,4.184,0,0,1-.8-1.2,2.537,2.537,0,0,1-.2-1.2,1.268,1.268,0,0,1,.4-.9,1.456,1.456,0,0,1,.9-.6,1.922,1.922,0,0,1,1.2-.3" transform="translate(0 -0.3)"/>
  <path id="Path_43" data-name="Path 43" d="M82.2,21.9a5.9,5.9,0,0,1,1.4.2,3.88,3.88,0,0,1,1.1.6,2.361,2.361,0,0,1,.6.9,2.438,2.438,0,0,1,0,1.2,3.379,3.379,0,0,1-.6,1.2,4.741,4.741,0,0,1-1,1,6.11,6.11,0,0,1-1.4.7,4.146,4.146,0,0,1-1.6.3,7.719,7.719,0,0,1-1.5-.2,4.129,4.129,0,0,1-1.1-.7,2.075,2.075,0,0,1-.6-1,2.438,2.438,0,0,1,0-1.2,3.379,3.379,0,0,1,.6-1.2,3.126,3.126,0,0,1,1.1-.9,3.506,3.506,0,0,1,1.4-.6,4.146,4.146,0,0,1,1.6-.3" transform="translate(0 -0.3)"/>
  <path id="Path_44" data-name="Path 44" d="M56.9,30.7a3.339,3.339,0,0,1,1.5.3,4.129,4.129,0,0,1,1.1.7,2.22,2.22,0,0,1,.5,1.1,2.4,2.4,0,0,1-.2,1.4,6.376,6.376,0,0,1-.8,1.4,8.7,8.7,0,0,1-1.4,1.2,8.865,8.865,0,0,1-1.7.8,5.663,5.663,0,0,1-1.8.3,4.146,4.146,0,0,1-1.6-.3,4.44,4.44,0,0,1-1.1-.8,2.2,2.2,0,0,1-.5-1.2,3.644,3.644,0,0,1,.2-1.4,4.2,4.2,0,0,1,.9-1.4,5.256,5.256,0,0,1,1.4-1.1A5.576,5.576,0,0,1,55,31a6.8,6.8,0,0,1,1.9-.3" transform="translate(0 -0.3)"/>
  <path id="Path_45" data-name="Path 45" d="M80,30.7a4.146,4.146,0,0,1,1.6.3,3.458,3.458,0,0,1,1.2.7,4.129,4.129,0,0,1,.7,1.1,3.3,3.3,0,0,1,0,1.4,3.506,3.506,0,0,1-.6,1.4,6.789,6.789,0,0,1-1.2,1.2,7.973,7.973,0,0,1-1.6.8,5.662,5.662,0,0,1-1.8.3,3.808,3.808,0,0,1-1.6-.3,3.6,3.6,0,0,1-1.2-.8,2.281,2.281,0,0,1-.6-1.2,3.3,3.3,0,0,1,0-1.4,3.694,3.694,0,0,1,.7-1.4,4.263,4.263,0,0,1,1.2-1.1,5.066,5.066,0,0,1,1.5-.7,5.547,5.547,0,0,1,1.7-.3" transform="translate(0 -0.3)"/>
  <path id="Path_46" data-name="Path 46" d="M91.6,30.7a4.146,4.146,0,0,1,1.6.3,3.458,3.458,0,0,1,1.2.7,2.589,2.589,0,0,1,.7,1.1,2.2,2.2,0,0,1,.1,1.4,5.783,5.783,0,0,1-.5,1.4,11.985,11.985,0,0,1-1.1,1.2,7.143,7.143,0,0,1-1.5.8,5.23,5.23,0,0,1-1.8.3,4.671,4.671,0,0,1-1.7-.3,3.6,3.6,0,0,1-1.2-.8,2.4,2.4,0,0,1-.7-1.2,3.211,3.211,0,0,1-.1-1.4,3.506,3.506,0,0,1,.6-1.4,5.731,5.731,0,0,1,1.1-1.1,3.479,3.479,0,0,1,1.5-.7,6.723,6.723,0,0,1,1.8-.3" transform="translate(0 -0.3)"/>
  <path id="Path_47" data-name="Path 47" d="M114.8,30.7a4.146,4.146,0,0,1,1.6.3,3.991,3.991,0,0,1,1.3.7,3.126,3.126,0,0,1,.9,1.1,3.417,3.417,0,0,1,0,2.8,4.7,4.7,0,0,1-.9,1.2,6.376,6.376,0,0,1-1.4.8,4.967,4.967,0,0,1-3.4,0,6.376,6.376,0,0,1-1.4-.8,2.73,2.73,0,0,1-.9-1.2,3.194,3.194,0,0,1-.3-1.4,3.255,3.255,0,0,1,.4-1.4,3.459,3.459,0,0,1,1-1.1,3.694,3.694,0,0,1,1.4-.7,5.079,5.079,0,0,1,1.7-.3" transform="translate(0 -0.3)"/>
  <path id="Path_48" data-name="Path 48" d="M125.6,30.7a4.146,4.146,0,0,1,1.6.3,6.109,6.109,0,0,1,1.4.7,5.242,5.242,0,0,1,1,1.1,3.255,3.255,0,0,1,.4,1.4,5.9,5.9,0,0,1-.2,1.4,4.7,4.7,0,0,1-.9,1.2,5.67,5.67,0,0,1-1.3.8,4.967,4.967,0,0,1-3.4,0,6.376,6.376,0,0,1-1.4-.8,2.73,2.73,0,0,1-.9-1.2,5.732,5.732,0,0,1-.4-1.4,3.194,3.194,0,0,1,.3-1.4,3.126,3.126,0,0,1,.9-1.1A3.293,3.293,0,0,1,124,31a3.808,3.808,0,0,1,1.6-.3" transform="translate(0 -0.3)"/>
  <path id="Path_49" data-name="Path 49" d="M160.3,30.7a4.671,4.671,0,0,1,1.7.3,6.893,6.893,0,0,1,1.5.7,4.263,4.263,0,0,1,1.2,1.1,3.694,3.694,0,0,1,.7,1.4,3.3,3.3,0,0,1,0,1.4,3.379,3.379,0,0,1-.6,1.2,3.6,3.6,0,0,1-1.2.8,4.146,4.146,0,0,1-1.6.3,5.663,5.663,0,0,1-1.8-.3,7.973,7.973,0,0,1-1.6-.8,3.447,3.447,0,0,1-1.2-1.2,6.109,6.109,0,0,1-.7-1.4,3.3,3.3,0,0,1,0-1.4,1.9,1.9,0,0,1,.7-1.1,2.4,2.4,0,0,1,1.2-.7,5.547,5.547,0,0,1,1.7-.3" transform="translate(0 -0.3)"/>
  <path id="Path_50" data-name="Path 50" d="M148.7,30.7a5.079,5.079,0,0,1,1.7.3,10.092,10.092,0,0,1,1.5.7,5.731,5.731,0,0,1,1.1,1.1,3.506,3.506,0,0,1,.6,1.4,3.3,3.3,0,0,1,0,1.4,3.746,3.746,0,0,1-.7,1.2,3.6,3.6,0,0,1-1.2.8,4.309,4.309,0,0,1-1.7.3,5.663,5.663,0,0,1-1.8-.3,5.3,5.3,0,0,1-1.5-.8,4.263,4.263,0,0,1-1.1-1.2,3.506,3.506,0,0,1-.6-1.4,3.21,3.21,0,0,1,.1-1.4,4.129,4.129,0,0,1,.7-1.1A2.4,2.4,0,0,1,147,31a5.547,5.547,0,0,1,1.7-.3" transform="translate(0 -0.3)"/>
  <path id="Path_51" data-name="Path 51" d="M183.5,30.7a4.671,4.671,0,0,1,1.7.3,7.741,7.741,0,0,1,1.6.7,7.551,7.551,0,0,1,1.4,1.1,4.2,4.2,0,0,1,.9,1.4,3.926,3.926,0,0,1,.3,1.4,2.843,2.843,0,0,1-.4,1.2,3.134,3.134,0,0,1-1.1.8,3.808,3.808,0,0,1-1.6.3,5.663,5.663,0,0,1-1.8-.3,8.865,8.865,0,0,1-1.7-.8,5.262,5.262,0,0,1-1.4-1.2,4.2,4.2,0,0,1-.9-1.4,3.645,3.645,0,0,1-.2-1.4,2.22,2.22,0,0,1,.5-1.1,2.1,2.1,0,0,1,1.1-.7,4.145,4.145,0,0,1,1.6-.3" transform="translate(0 -0.3)"/>
  <path id="Path_52" data-name="Path 52" d="M195.1,30.7a5.663,5.663,0,0,1,1.8.3,8.651,8.651,0,0,1,1.7.7,7.551,7.551,0,0,1,1.4,1.1,4.508,4.508,0,0,1,1,1.4,4.293,4.293,0,0,1,.4,1.4,1.922,1.922,0,0,1-.4,1.2,2.723,2.723,0,0,1-1,.8,3.808,3.808,0,0,1-1.6.3,5.663,5.663,0,0,1-1.8-.3,8.865,8.865,0,0,1-1.7-.8,5.262,5.262,0,0,1-1.4-1.2,7.1,7.1,0,0,1-1-1.4,3.926,3.926,0,0,1-.3-1.4,2.1,2.1,0,0,1,.4-1.1,1.834,1.834,0,0,1,1-.7,3.339,3.339,0,0,1,1.5-.3" transform="translate(0 -0.3)"/>
  <path id="Path_53" data-name="Path 53" d="M45.3,30.7a3.339,3.339,0,0,1,1.5.3,2.552,2.552,0,0,1,1,.7,2.1,2.1,0,0,1,.4,1.1,2.543,2.543,0,0,1-.3,1.4,4.2,4.2,0,0,1-.9,1.4,17.411,17.411,0,0,1-1.4,1.2,8.865,8.865,0,0,1-1.7.8,5.663,5.663,0,0,1-1.8.3,4.146,4.146,0,0,1-1.6-.3,2.723,2.723,0,0,1-1-.8,2.144,2.144,0,0,1-.4-1.2,3.926,3.926,0,0,1,.3-1.4,4.508,4.508,0,0,1,1-1.4,7.551,7.551,0,0,1,1.4-1.1,5.094,5.094,0,0,1,1.7-.7,5.663,5.663,0,0,1,1.8-.3" transform="translate(0 -0.3)"/>
  <path id="Path_54" data-name="Path 54" d="M187.4,40.6a7.469,7.469,0,0,1,2,.3,8.177,8.177,0,0,1,1.9.9,10.1,10.1,0,0,1,1.6,1.3,7.642,7.642,0,0,1,1.1,1.6,3.61,3.61,0,0,1,.3,1.7,2.389,2.389,0,0,1-.5,1.4,4,4,0,0,1-1.2,1,4.776,4.776,0,0,1-1.8.4,6.448,6.448,0,0,1-2-.3,6.632,6.632,0,0,1-1.9-.9,10.7,10.7,0,0,1-1.6-1.4,5.854,5.854,0,0,1-1-1.7,3.08,3.08,0,0,1-.2-1.6,2.947,2.947,0,0,1,.5-1.3,2.73,2.73,0,0,1,1.2-.9,2.066,2.066,0,0,1,1.6-.5" transform="translate(0 -0.3)"/>
  <path id="Path_55" data-name="Path 55" d="M53.1,40.6a4.671,4.671,0,0,1,1.7.3,2.73,2.73,0,0,1,1.2.9,2.106,2.106,0,0,1,.5,1.3,2.966,2.966,0,0,1-.2,1.6,4.248,4.248,0,0,1-1,1.7,9.956,9.956,0,0,1-1.5,1.4,11.4,11.4,0,0,1-1.9,1,7.87,7.87,0,0,1-2,.4,4.844,4.844,0,0,1-1.8-.3,2.73,2.73,0,0,1-1.2-.9,3.36,3.36,0,0,1-.5-1.4,5.547,5.547,0,0,1,.3-1.7,5.372,5.372,0,0,1,1-1.6A6.1,6.1,0,0,1,49.2,42a7.572,7.572,0,0,1,1.8-.9,4.3,4.3,0,0,1,2.1-.5" transform="translate(0 -0.3)"/>
  <path id="Path_56" data-name="Path 56" d="M199.7,40.6a7.469,7.469,0,0,1,2,.3,6.632,6.632,0,0,1,1.9.9,10.916,10.916,0,0,1,1.7,1.3,8.347,8.347,0,0,1,1.2,1.6,3.533,3.533,0,0,1,.4,1.7,2.3,2.3,0,0,1-.4,1.4,2.707,2.707,0,0,1-1.1,1,4.711,4.711,0,0,1-1.7.4,7.613,7.613,0,0,1-2.1-.3,7.218,7.218,0,0,1-2-.9,11.511,11.511,0,0,1-1.7-1.4,4.517,4.517,0,0,1-1.1-1.7,2.414,2.414,0,0,1-.3-1.6,2.836,2.836,0,0,1,.4-1.3,4.023,4.023,0,0,1,2.8-1.4" transform="translate(0 -0.3)"/>
  <path id="Path_57" data-name="Path 57" d="M77.7,40.6a5.663,5.663,0,0,1,1.8.3,3.045,3.045,0,0,1,1.3.9,3.293,3.293,0,0,1,.7,1.3,4.3,4.3,0,0,1,0,1.6,5.094,5.094,0,0,1-.7,1.7,8.636,8.636,0,0,1-1.3,1.4,7.677,7.677,0,0,1-1.8,1,6.465,6.465,0,0,1-2,.4,4.844,4.844,0,0,1-1.8-.3,3.045,3.045,0,0,1-1.3-.9,3.694,3.694,0,0,1-.7-1.4,3.339,3.339,0,0,1,.1-1.7,4.812,4.812,0,0,1,.8-1.6A4.357,4.357,0,0,1,74.2,42a5.559,5.559,0,0,1,1.7-.9,2.73,2.73,0,0,1,1.8-.5" transform="translate(0 -0.3)"/>
  <path id="Path_58" data-name="Path 58" d="M90,40.6a5.663,5.663,0,0,1,1.8.3,3.39,3.39,0,0,1,1.4.9,2.577,2.577,0,0,1,.8,1.3,2.917,2.917,0,0,1,.1,1.6,4.924,4.924,0,0,1-.6,1.7,5.263,5.263,0,0,1-1.2,1.4,9.5,9.5,0,0,1-1.7,1,6.465,6.465,0,0,1-2,.4,5.822,5.822,0,0,1-1.9-.3,4.2,4.2,0,0,1-1.4-.9,3.924,3.924,0,0,1-.8-1.4,4.735,4.735,0,0,1-.1-1.7,4.594,4.594,0,0,1,.7-1.6A4.036,4.036,0,0,1,86.4,42a5.559,5.559,0,0,1,1.7-.9,3.2,3.2,0,0,1,1.9-.5" transform="translate(0 -0.3)"/>
  <path id="Path_59" data-name="Path 59" d="M114.5,40.6a5.23,5.23,0,0,1,1.8.3,3.766,3.766,0,0,1,1.5.9,4.125,4.125,0,0,1,1,1.3,4.707,4.707,0,0,1,.4,1.6,3.287,3.287,0,0,1-.4,1.7,3.6,3.6,0,0,1-1.1,1.4,6.242,6.242,0,0,1-1.6,1,5.337,5.337,0,0,1-3.8.1,3.766,3.766,0,0,1-1.5-.9,4.508,4.508,0,0,1-1-1.4,4.671,4.671,0,0,1-.3-1.7,3.022,3.022,0,0,1,.5-1.6,4.487,4.487,0,0,1,1.1-1.3,4.617,4.617,0,0,1,1.5-.9,3.609,3.609,0,0,1,1.9-.5" transform="translate(0 -0.3)"/>
  <path id="Path_60" data-name="Path 60" d="M125.9,40.6a5.23,5.23,0,0,1,1.8.3,3.766,3.766,0,0,1,1.5.9,6.886,6.886,0,0,1,1.1,1.3,4.939,4.939,0,0,1,.5,1.6,4.671,4.671,0,0,1-.3,1.7,3.316,3.316,0,0,1-1,1.4,5.6,5.6,0,0,1-1.5,1,5.337,5.337,0,0,1-3.8.1,5.071,5.071,0,0,1-1.6-.9,7.551,7.551,0,0,1-1.1-1.4,4.711,4.711,0,0,1-.4-1.7,2.934,2.934,0,0,1,.4-1.6,4.125,4.125,0,0,1,1-1.3,3.766,3.766,0,0,1,1.5-.9,3.608,3.608,0,0,1,1.9-.5" transform="translate(0 -0.3)"/>
  <path id="Path_61" data-name="Path 61" d="M162.8,40.6a6.279,6.279,0,0,1,1.9.3,5.559,5.559,0,0,1,1.7.9,8.635,8.635,0,0,1,1.4,1.3,4.013,4.013,0,0,1,.8,1.6,3.339,3.339,0,0,1,.1,1.7,2.666,2.666,0,0,1-.7,1.4,4.486,4.486,0,0,1-1.3,1,4.776,4.776,0,0,1-1.8.4,6.448,6.448,0,0,1-2-.3,7.572,7.572,0,0,1-1.8-.9,9.266,9.266,0,0,1-1.4-1.4,5.306,5.306,0,0,1-.8-1.7,4.3,4.3,0,0,1,0-1.6,3.293,3.293,0,0,1,.7-1.3,3.045,3.045,0,0,1,1.3-.9,3.609,3.609,0,0,1,1.9-.5" transform="translate(0 -0.3)"/>
  <path id="Path_62" data-name="Path 62" d="M150.5,40.6a6.279,6.279,0,0,1,1.9.3,5.559,5.559,0,0,1,1.7.9,7.994,7.994,0,0,1,1.3,1.3,5.576,5.576,0,0,1,.7,1.6,4.845,4.845,0,0,1,0,1.7,2.851,2.851,0,0,1-.8,1.4,5.02,5.02,0,0,1-1.4,1,5.263,5.263,0,0,1-1.8.4,6.929,6.929,0,0,1-2-.3,5.559,5.559,0,0,1-1.7-.9,8.636,8.636,0,0,1-1.3-1.4,4.924,4.924,0,0,1-.6-1.7,4.193,4.193,0,0,1,.1-1.6,3.528,3.528,0,0,1,.8-1.3,3.805,3.805,0,0,1,1.3-.9,3.085,3.085,0,0,1,1.8-.5" transform="translate(0 -0.3)"/>
  <g id="Group_7" data-name="Group 7" transform="translate(0 -0.3)">
    <g id="Group_5" data-name="Group 5" clip-path="url(#clip-path)">
      <path id="Path_63" data-name="Path 63" d="M40.8,40.6a4.671,4.671,0,0,1,1.7.3,2.445,2.445,0,0,1,1.1.9,2.01,2.01,0,0,1,.4,1.3,4.529,4.529,0,0,1-.3,1.6,6.191,6.191,0,0,1-1.1,1.7A10.7,10.7,0,0,1,41,47.8a12.445,12.445,0,0,1-2,1,7.789,7.789,0,0,1-2.1.4,3.985,3.985,0,0,1-1.7-.3,2.012,2.012,0,0,1-1.1-.9,2.3,2.3,0,0,1-.4-1.4,3.809,3.809,0,0,1,.4-1.7,6.1,6.1,0,0,1,1.2-1.6A6.529,6.529,0,0,1,36.9,42a6.632,6.632,0,0,1,1.9-.9,3.719,3.719,0,0,1,2-.5"/>
    </g>
    <g id="Group_6" data-name="Group 6" clip-path="url(#clip-path)">
      <path id="Path_64" data-name="Path 64" d="M59.1.3c.4,0,.7.1,1,.1a1.612,1.612,0,0,1,.7.4.908.908,0,0,1,.3.7,1.7,1.7,0,0,1-.1.7,1.794,1.794,0,0,1-.5.7,3.49,3.49,0,0,1-.9.6,3.582,3.582,0,0,1-1.1.4,5.019,5.019,0,0,1-1.2.2c-.4,0-.7-.1-1-.1a1.612,1.612,0,0,1-.7-.4.864.864,0,0,1-.3-.6,1.7,1.7,0,0,1,.1-.7,1.555,1.555,0,0,1,.6-.8,3.49,3.49,0,0,1,.9-.6A3.582,3.582,0,0,1,58,.5,3.6,3.6,0,0,1,59.1.3"/>
    </g>
  </g>
  <path id="Path_65" data-name="Path 65" d="M106.2.3a4.1,4.1,0,0,1,1.1.1,3.552,3.552,0,0,1,.9.4l.6.6a1.854,1.854,0,0,1,.2.7.908.908,0,0,1-.3.7,4.349,4.349,0,0,1-.7.6,3.552,3.552,0,0,1-.9.4A4.253,4.253,0,0,1,106,4c-.4,0-.8-.1-1.1-.1a3.552,3.552,0,0,1-.9-.4,2.651,2.651,0,0,1-.5-.6.878.878,0,0,1-.1-.7.908.908,0,0,1,.3-.7,4.349,4.349,0,0,1,.7-.6,3.552,3.552,0,0,1,.9-.4,2,2,0,0,1,.9-.2" transform="translate(0 -0.3)"/>
  <path id="Path_66" data-name="Path 66" d="M115.7.3a4.1,4.1,0,0,1,1.1.1,3.552,3.552,0,0,1,.9.4c.2.2.5.4.6.6a1.854,1.854,0,0,1,.2.7,1.445,1.445,0,0,1-.2.7c-.1.2-.4.4-.6.6a3.552,3.552,0,0,1-.9.4,3.6,3.6,0,0,1-1.1.2c-.4,0-.8-.1-1.1-.1a3.552,3.552,0,0,1-.9-.4l-.6-.6a1.854,1.854,0,0,1-.2-.7.908.908,0,0,1,.3-.7l.6-.6a3.552,3.552,0,0,1,.9-.4,2.509,2.509,0,0,1,1-.2" transform="translate(0 -0.3)"/>
  <path id="Path_67" data-name="Path 67" d="M124.4.3a4.1,4.1,0,0,1,1.1.1,3.552,3.552,0,0,1,.9.4,1.7,1.7,0,0,1,.6.6c.2.2.2.5.3.7a.844.844,0,0,1-.2.7,1.7,1.7,0,0,1-.6.6,2.471,2.471,0,0,1-.9.4,3.6,3.6,0,0,1-1.1.2c-.4,0-.8-.1-1.1-.1a2.471,2.471,0,0,1-.9-.4,1.7,1.7,0,0,1-.6-.6,1.854,1.854,0,0,1-.2-.7,1.445,1.445,0,0,1,.2-.7,1.7,1.7,0,0,1,.6-.6,1.884,1.884,0,0,1,.9-.4,2.958,2.958,0,0,1,1-.2" transform="translate(0 -0.3)"/>
  <path id="Path_68" data-name="Path 68" d="M133.8.3a3.75,3.75,0,0,1,1.1.1,2.471,2.471,0,0,1,.9.4,4.349,4.349,0,0,1,.7.6,1.08,1.08,0,0,1,.3.7,1.483,1.483,0,0,1-.1.7,2.652,2.652,0,0,1-.5.6,1.884,1.884,0,0,1-.9.4,3.6,3.6,0,0,1-1.1.2,3.75,3.75,0,0,1-1.1-.1,3,3,0,0,1-1-.4,4.349,4.349,0,0,1-.7-.6,1.08,1.08,0,0,1-.3-.7.844.844,0,0,1,.2-.7,2.652,2.652,0,0,1,.5-.6,2.01,2.01,0,0,1,.8-.4,7.385,7.385,0,0,1,1.2-.2" transform="translate(0 -0.3)"/>
  <path id="Path_69" data-name="Path 69" d="M143.3.3a3.75,3.75,0,0,1,1.1.1,3,3,0,0,1,1,.4,4.349,4.349,0,0,1,.7.6,2.506,2.506,0,0,1,.4.7.821.821,0,0,1-.1.7,2.652,2.652,0,0,1-.5.6,2.01,2.01,0,0,1-.8.4A3.6,3.6,0,0,1,144,4c-.4,0-.8-.1-1.1-.1a3,3,0,0,1-1-.4,4.349,4.349,0,0,1-.7-.6,1.08,1.08,0,0,1-.3-.7,1.483,1.483,0,0,1,.1-.7,2.652,2.652,0,0,1,.5-.6,2.01,2.01,0,0,1,.8-.4,8.663,8.663,0,0,1,1-.2" transform="translate(0 -0.3)"/>
  <path id="Path_70" data-name="Path 70" d="M181,.4a3.75,3.75,0,0,1,1.1.1,4.875,4.875,0,0,1,1.1.4l.9.6a3.736,3.736,0,0,1,.6.7c.1.3.2.5.1.7a.864.864,0,0,1-.3.6,1.612,1.612,0,0,1-.7.4,2.959,2.959,0,0,1-1,.2c-.4,0-.8-.1-1.2-.1a3.582,3.582,0,0,1-1.1-.4l-.9-.6c-.2-.2-.4-.5-.6-.7,0-.3-.1-.6,0-.8,0-.2.2-.4.3-.6a1.612,1.612,0,0,1,.7-.4,3.083,3.083,0,0,1,1-.1" transform="translate(0 -0.3)"/>
  <path id="Path_71" data-name="Path 71" d="M96.8.3a4.1,4.1,0,0,1,1.1.1,2.01,2.01,0,0,1,.8.4,2.651,2.651,0,0,1,.5.6.878.878,0,0,1,.1.7,1.493,1.493,0,0,1-.3.7,4.349,4.349,0,0,1-.7.6,3,3,0,0,1-1,.4,4.253,4.253,0,0,1-1.1.2c-.4,0-.8-.1-1.1-.1a2.01,2.01,0,0,1-.8-.4,1.024,1.024,0,0,1-.6-.5,1.7,1.7,0,0,1-.1-.7,2.01,2.01,0,0,1,.4-.8,4.349,4.349,0,0,1,.7-.6,3,3,0,0,1,1-.4A3.6,3.6,0,0,1,96.8.3" transform="translate(0 -0.3)"/>
  <path id="Path_72" data-name="Path 72" d="M31.5,64.8c-.2-.1-.3-.2-.5-.2s-.4-.1-.6-.1a2.92,2.92,0,0,0-.9.2,1.024,1.024,0,0,0-.6.5h0l-4.1,5.4-4.1-5.4h0l-.3-.3c-.2-.1-.3-.3-.5-.3a1.7,1.7,0,0,0-.7-.1c-.3,0-.5.1-.8.1-.2.1-.3.2-.5.3a1.794,1.794,0,0,0-.5.7,1.884,1.884,0,0,0-.2.8V77a.367.367,0,0,0,.1.3.349.349,0,0,0,.1.2l.3.3a.6.6,0,0,0,.4.1.367.367,0,0,0,.3-.1.349.349,0,0,0,.2-.1c.1-.1.2-.2.2-.3s.1-.2.1-.4V66.2H19l.1.1,4.8,6.3h0l.1.1a.349.349,0,0,0,.2.1.31.31,0,0,1,.2.1h.4c.1,0,.1,0,.2-.1.1,0,.1-.1.2-.1l.1-.1h0l4.8-6.3.1-.1h.2l.1.1V77a.367.367,0,0,0,.1.3.349.349,0,0,0,.1.2l.3.3a.6.6,0,0,0,.4.1.864.864,0,0,0,.6-.3c.1-.1.1-.2.2-.3,0-.1.1-.2.1-.3V66.4a1.7,1.7,0,0,0-.1-.7,1.6,1.6,0,0,0-.7-.9" transform="translate(0 -0.3)"/>
  <path id="Path_73" data-name="Path 73" d="M47.8,64.5c-.1,0-.2-.1-.3-.1h-.2c-.1,0-.1,0-.2.1-.1,0-.1.1-.2.1l-.1.1h0l-5.2,6-5.3-6h0l-.2-.2a.349.349,0,0,0-.2-.1h-.2a.367.367,0,0,0-.3.1.349.349,0,0,0-.2.1c-.2.1-.2.2-.3.4-.1.1-.1.2-.1.4a1.421,1.421,0,0,0,.2.6h0l5.8,6.5V77a1.421,1.421,0,0,0,.2.6c.1.1.2.2.3.2s.2.1.4.1a.756.756,0,0,0,.4-.1.215.215,0,0,0,.2-.2c.1-.1.2-.2.2-.3s.1-.2.1-.3V72.5L48.2,66h0c.1-.1.1-.2.2-.3,0-.1.1-.2.1-.3a1.421,1.421,0,0,0-.2-.6c-.2-.1-.3-.2-.5-.3m-.6.6Z" transform="translate(0 -0.3)"/>
  <path id="Path_74" data-name="Path 74" d="M63.7,64.8c-.1-.1-.2-.2-.3-.2-.1-.1-.2-.1-.4-.1a.367.367,0,0,0-.3.1.349.349,0,0,0-.2.1c-.1.1-.2.2-.2.3-.1.1-.1.2-.1.4V76.2H62l-.1-.1L54.5,65.4h0l-.3-.3c-.2-.1-.3-.3-.6-.4a1.7,1.7,0,0,0-.7-.1c-.3,0-.5.1-.8.1-.2.1-.3.2-.5.3a1.794,1.794,0,0,0-.5.7c-.1.1-.1.4-.1.7V77a.367.367,0,0,0,.1.3.349.349,0,0,0,.1.2l.3.3a.6.6,0,0,0,.4.1.367.367,0,0,0,.3-.1.349.349,0,0,0,.2-.1c.1-.1.2-.2.2-.3s.1-.2.1-.4V66.3h.2l.1.1L60.4,77h0l.3.3c.2.1.3.3.6.4a1.7,1.7,0,0,0,.7.1,1.483,1.483,0,0,0,.7-.1,1.779,1.779,0,0,0,.8-.7,2.016,2.016,0,0,0,.3-1.1V65.3a.367.367,0,0,0-.1-.3c.1-.1,0-.1,0-.2" transform="translate(0 -0.3)"/>
  <path id="Path_75" data-name="Path 75" d="M78.2,66.7a9.016,9.016,0,0,0-.9-1,5.076,5.076,0,0,0-1.8-.9,7.8,7.8,0,0,0-2.2-.3H68.4a.367.367,0,0,0-.3.1.349.349,0,0,0-.2.1c-.1.1-.2.2-.2.3-.1.1-.1.2-.1.4V77.3a.349.349,0,0,0,.1.2c0,.1.1.1.2.2s.2.1.3.2h4.7a7.635,7.635,0,0,0,2.7-.5,5.854,5.854,0,0,0,1.7-1A6.576,6.576,0,0,0,79,74.1a7.306,7.306,0,0,0,.6-3,8.246,8.246,0,0,0-.4-2.8,8.635,8.635,0,0,0-1-1.6m-.9,6.5a3.458,3.458,0,0,1-.7,1.2A3.978,3.978,0,0,1,75,75.6a5.214,5.214,0,0,1-2.3.5H69.1V66.2h4a6.013,6.013,0,0,1,2,.3,10.907,10.907,0,0,1,1.1.6,4.349,4.349,0,0,1,.6.7,3.506,3.506,0,0,1,.6,1.4,11.076,11.076,0,0,1,.2,1.9A3.607,3.607,0,0,1,77.3,73.2Z" transform="translate(0 -0.3)"/>
  <path id="Path_76" data-name="Path 76" d="M84.3,64.8l-.3-.3a.6.6,0,0,0-.4-.1.756.756,0,0,0-.4.1.215.215,0,0,0-.2.2c-.1.1-.2.2-.2.3s-.1.2-.1.3V77a.367.367,0,0,0,.1.3.349.349,0,0,0,.1.2c.1.1.2.2.3.2.1.1.2.1.4.1a.367.367,0,0,0,.3-.1.349.349,0,0,0,.2-.1c.1-.1.2-.2.2-.3.1-.1.1-.2.1-.4V65a.31.31,0,0,0-.1-.2" transform="translate(0 -0.3)"/>
  <path id="Path_77" data-name="Path 77" d="M100.7,71h0c0-.1-.1-.2-.1-.3s-.1-.1-.1-.2c-.1-.1-.2-.2-.3-.2s-.2-.1-.4-.1H94.7a.367.367,0,0,0-.3.1.349.349,0,0,0-.2.1c-.1.1-.2.2-.2.3-.1.1-.1.2-.1.4a.367.367,0,0,0,.1.3c.1.1.2.3.3.4.1,0,.1.1.2.1h4.6V72a4.671,4.671,0,0,1-.3,1.7,5.359,5.359,0,0,1-.5,1.1l-.6.6a5.388,5.388,0,0,1-1.3.7,4.844,4.844,0,0,1-1.8.3,6.648,6.648,0,0,1-2.1-.3,10.907,10.907,0,0,1-1.1-.6,4.349,4.349,0,0,1-.6-.7,3.387,3.387,0,0,1-.6-1.5,12.482,12.482,0,0,1-.2-2.1,7.316,7.316,0,0,1,.3-2.2c.2-.5.4-.9.6-1.3a2.336,2.336,0,0,1,.7-.7,3.088,3.088,0,0,1,1.4-.7,5.412,5.412,0,0,1,1.9-.3,6.622,6.622,0,0,1,1.5.1l.9.3A3.512,3.512,0,0,1,99,68.1h0c0,.1.1.1.1.2.1.1.2.2.3.2s.2.1.3.1a.756.756,0,0,0,.4-.1.215.215,0,0,0,.2-.2c.1,0,.1-.1.1-.2a.31.31,0,0,0,.1-.2v-.6h0a6.706,6.706,0,0,0-.9-1.4,6.47,6.47,0,0,0-.9-.8,5.094,5.094,0,0,0-1.7-.7,6.816,6.816,0,0,0-2.1-.2,8.807,8.807,0,0,0-2.9.5,9.5,9.5,0,0,0-1.7,1,5.1,5.1,0,0,0-1.6,2.4,10.069,10.069,0,0,0-.5,3.1,8.475,8.475,0,0,0,.4,2.9,8.864,8.864,0,0,0,.8,1.7,9.016,9.016,0,0,0,.9,1,5.734,5.734,0,0,0,1.9,1,8.751,8.751,0,0,0,2.4.3,7.782,7.782,0,0,0,2.8-.5,8.272,8.272,0,0,0,1.6-.9,5.106,5.106,0,0,0,1.5-2.1,7.418,7.418,0,0,0,.5-2.5,4.508,4.508,0,0,1-.3-1.1h0" transform="translate(0 -0.3)"/>
  <path id="Path_78" data-name="Path 78" d="M115.4,64.6a.749.749,0,0,0-.5-.1.367.367,0,0,0-.3.1.349.349,0,0,0-.2.1c-.1.1-.2.2-.2.3-.1.1-.1.2-.1.4v5h-8.3v-5a.756.756,0,0,0-.1-.4,1.38,1.38,0,0,0-.3-.4.749.749,0,0,0-.5-.1.367.367,0,0,0-.3.1.349.349,0,0,0-.2.1c-.1.1-.2.2-.2.3-.1.1-.1.2-.1.4V77a.367.367,0,0,0,.1.3c.1.1.2.3.3.4s.1.1.2.1h.3a.6.6,0,0,0,.4-.1c.1,0,.1-.1.2-.1.1-.1.2-.2.2-.3.1-.1.1-.2.1-.4v-5h8.3v5a.367.367,0,0,0,.1.3c.1.1.2.3.3.4s.1.1.2.1h.3a.6.6,0,0,0,.4-.1c.1,0,.1-.1.2-.1.1-.1.2-.2.2-.3.1-.1.1-.2.1-.4V65.3a.756.756,0,0,0-.1-.4c-.2-.1-.3-.2-.5-.3" transform="translate(0 -0.3)"/>
  <path id="Path_79" data-name="Path 79" d="M129.2,66.2a.367.367,0,0,0,.3-.1.349.349,0,0,0,.2-.1l.3-.3a.6.6,0,0,0,.1-.4.367.367,0,0,0-.1-.3.349.349,0,0,0-.1-.2c-.1-.1-.2-.2-.3-.2s-.2-.1-.4-.1h-8.9a.756.756,0,0,0-.4.1.215.215,0,0,0-.2.2c-.1.1-.2.2-.2.3s-.1.2-.1.3V77.3a.349.349,0,0,0,.1.2c0,.1.1.1.2.2a.367.367,0,0,0,.3.1h9.2a.367.367,0,0,0,.3-.1.349.349,0,0,0,.2-.1l.3-.3a.6.6,0,0,0,.1-.4.367.367,0,0,0-.1-.3.349.349,0,0,0-.1-.2c-.1-.1-.2-.2-.3-.2s-.2-.1-.4-.1h-8V72h6.1a.367.367,0,0,0,.3-.1.349.349,0,0,0,.2-.1l.3-.3a.6.6,0,0,0,.1-.4.367.367,0,0,0-.1-.3.349.349,0,0,0-.1-.2c-.1-.1-.2-.2-.3-.2s-.2-.1-.4-.1h-6.1V66.2h8" transform="translate(0 -0.3)"/>
  <path id="Path_80" data-name="Path 80" d="M144.3,64.8c-.1-.1-.2-.2-.3-.2s-.2-.1-.4-.1H132.5a.367.367,0,0,0-.3.1.349.349,0,0,0-.2.1l-.3.3c-.1.1-.1.2-.1.4a.367.367,0,0,0,.1.3.349.349,0,0,0,.1.2c.1.1.2.2.3.2s.2.1.4.1h4.7V77a.367.367,0,0,0,.1.3.349.349,0,0,0,.1.2l.3.3a.6.6,0,0,0,.4.1.367.367,0,0,0,.3-.1.349.349,0,0,0,.2-.1c.1-.1.2-.2.2-.3s.1-.2.1-.4V66.2h4.7a.367.367,0,0,0,.3-.1.349.349,0,0,0,.2-.1l.3-.3a.6.6,0,0,0,.1-.4.367.367,0,0,0-.1-.3.349.349,0,0,0-.1-.2" transform="translate(0 -0.3)"/>
  <path id="Path_81" data-name="Path 81" d="M155.7,66.2a.367.367,0,0,0,.3-.1.349.349,0,0,0,.2-.1l.3-.3a.6.6,0,0,0,.1-.4.367.367,0,0,0-.1-.3.349.349,0,0,0-.1-.2c-.1-.1-.2-.2-.3-.2s-.2-.1-.4-.1h-8.9a.756.756,0,0,0-.4.1.215.215,0,0,0-.2.2c-.1.1-.2.2-.2.3s-.1.2-.1.3V77.3a.349.349,0,0,0,.1.2c0,.1.1.1.2.2a.367.367,0,0,0,.3.1h9.2a.367.367,0,0,0,.3-.1.349.349,0,0,0,.2-.1l.3-.3a.6.6,0,0,0,.1-.4.367.367,0,0,0-.1-.3.349.349,0,0,0-.1-.2c-.1-.1-.2-.2-.3-.2s-.2-.1-.4-.1h-8V72h6.1a.367.367,0,0,0,.3-.1.349.349,0,0,0,.2-.1l.3-.3a.6.6,0,0,0,.1-.4.367.367,0,0,0-.1-.3.349.349,0,0,0-.1-.2c-.1-.1-.2-.2-.3-.2s-.2-.1-.4-.1h-6.1V66.2h8" transform="translate(0 -0.3)"/>
  <path id="Path_82" data-name="Path 82" d="M172.1,64.8c-.1-.1-.2-.2-.3-.2-.1-.1-.2-.1-.4-.1a.367.367,0,0,0-.3.1.349.349,0,0,0-.2.1c-.1.1-.2.2-.2.3-.1.1-.1.2-.1.4V76.2h-.2l-.1-.1-7.4-10.7h0l-.3-.3c-.2-.1-.3-.3-.6-.4a1.7,1.7,0,0,0-.7-.1c-.3,0-.5.1-.8.1-.2.1-.3.2-.5.3a1.794,1.794,0,0,0-.5.7,1.884,1.884,0,0,0-.2.8V77.3a.349.349,0,0,0,.1.2l.3.3a.6.6,0,0,0,.4.1.367.367,0,0,0,.3-.1.349.349,0,0,0,.2-.1c.1-.1.2-.2.2-.3s.1-.2.1-.4V66.3h.2l.1.1,7.4,10.7h0l.3.3c.2.1.3.3.6.4a1.7,1.7,0,0,0,.7.1,1.483,1.483,0,0,0,.7-.1,1.779,1.779,0,0,0,.8-.7A2.016,2.016,0,0,0,172,76V65.3a.367.367,0,0,0-.1-.3c.3-.1.2-.1.2-.2" transform="translate(0 -0.3)"/>
  <path id="Path_83" data-name="Path 83" d="M194.5,64.8c-.1-.1-.2-.2-.3-.2s-.2-.1-.4-.1h-8.9a.756.756,0,0,0-.4.1.215.215,0,0,0-.2.2c-.1.1-.2.2-.2.3s-.1.2-.1.3V77.3a.349.349,0,0,0,.1.2c0,.1.1.1.1.2.1.1.2.1.3.2.1,0,.2.1.3.1a.756.756,0,0,0,.4-.1.215.215,0,0,0,.2-.2c.1-.1.2-.2.2-.3s.1-.2.1-.3v-5h6.1a.367.367,0,0,0,.3-.1.349.349,0,0,0,.2-.1l.3-.3a.6.6,0,0,0,.1-.4.367.367,0,0,0-.1-.3.349.349,0,0,0-.1-.2c-.1-.1-.2-.2-.3-.2s-.2-.1-.4-.1h-6.1V66.3h8a.367.367,0,0,0,.3-.1.349.349,0,0,0,.2-.1l.3-.3a.6.6,0,0,0,.1-.4.367.367,0,0,0-.1-.3c.1-.2,0-.3,0-.3" transform="translate(0 -0.3)"/>
  <path id="Path_84" data-name="Path 84" d="M204.8,63.3a1.077,1.077,0,0,0,.8.2,1.284,1.284,0,0,0,1-.4c.1-.1.2-.3.3-.4a1.85,1.85,0,0,0,0-1.2,1.024,1.024,0,0,0-.5-.6,1.077,1.077,0,0,0-.8-.2.749.749,0,0,0-.5.1,1.024,1.024,0,0,0-.6.5,1.884,1.884,0,0,0-.2.8.749.749,0,0,0,.1.5c0,.4.1.6.4.7" transform="translate(0 -0.3)"/>
  <path id="Path_85" data-name="Path 85" d="M199.3,63.3a1.884,1.884,0,0,0,.8.2,1.284,1.284,0,0,0,1-.4c.1-.1.2-.3.3-.4a1.85,1.85,0,0,0,0-1.2,1.024,1.024,0,0,0-.5-.6,1.077,1.077,0,0,0-.8-.2.749.749,0,0,0-.5.1,1.47,1.47,0,0,0-.6.5,1.077,1.077,0,0,0-.2.8,1.268,1.268,0,0,0,.1.6.675.675,0,0,0,.4.6" transform="translate(0 -0.3)"/>
  <path id="Path_86" data-name="Path 86" d="M208.2,66.5a4.741,4.741,0,0,0-1-1,5.734,5.734,0,0,0-1.9-1,8.524,8.524,0,0,0-2.3-.3,8.807,8.807,0,0,0-2.9.5,9.5,9.5,0,0,0-1.7,1,5.272,5.272,0,0,0-1.7,2.4,7.791,7.791,0,0,0-.6,3.1,8.475,8.475,0,0,0,.4,2.9,5.559,5.559,0,0,0,.9,1.7,9.018,9.018,0,0,0,.9,1,5.734,5.734,0,0,0,1.9,1,8.524,8.524,0,0,0,2.3.3,8.21,8.21,0,0,0,2.8-.5,5.854,5.854,0,0,0,1.7-1,5.46,5.46,0,0,0,1.8-2.4,7.791,7.791,0,0,0,.6-3.1,8.475,8.475,0,0,0-.4-2.9,3.805,3.805,0,0,0-.8-1.7m-.8,6.8a5.388,5.388,0,0,1-.7,1.3,3.708,3.708,0,0,1-1.7,1.3,6.175,6.175,0,0,1-2.5.5,6.648,6.648,0,0,1-2.1-.3,10.909,10.909,0,0,1-1.1-.6,4.35,4.35,0,0,1-.6-.7,3.387,3.387,0,0,1-.6-1.5,12.481,12.481,0,0,1-.2-2.1,5.087,5.087,0,0,1,.4-2.2,5.388,5.388,0,0,1,.7-1.3,3.708,3.708,0,0,1,1.7-1.3,6.175,6.175,0,0,1,2.5-.5,6.648,6.648,0,0,1,2.1.3,4.13,4.13,0,0,1,1.1.7,4.35,4.35,0,0,1,.6.7,3.387,3.387,0,0,1,.6,1.5,12.481,12.481,0,0,1,.2,2.1A6.536,6.536,0,0,1,207.4,73.3Z" transform="translate(0 -0.3)"/>
  <path id="Path_87" data-name="Path 87" d="M222.9,76.4h0l-4.6-4.1h0V72h.5a4.671,4.671,0,0,0,1.7-.3,2.075,2.075,0,0,0,1-.6,3.805,3.805,0,0,0,.9-1.3,4.146,4.146,0,0,0,.3-1.6,3.653,3.653,0,0,0-.3-1.5,2.075,2.075,0,0,0-.6-1,4.125,4.125,0,0,0-1.3-1,4.844,4.844,0,0,0-1.8-.3h-5.5a.367.367,0,0,0-.3.1.349.349,0,0,0-.2.1c-.1.1-.2.2-.2.3s-.1.2-.1.4V77a.367.367,0,0,0,.1.3.349.349,0,0,0,.1.2l.3.3a.6.6,0,0,0,.4.1.367.367,0,0,0,.3-.1.349.349,0,0,0,.2-.1c.1-.1.2-.2.2-.3s.1-.2.1-.4V66.2h4.6a2.959,2.959,0,0,1,1,.2,2.186,2.186,0,0,1,.5.3l.3.3a3.329,3.329,0,0,1,.3.6,1.949,1.949,0,0,1,.1.8c0,.4-.1.7-.1.9-.1.2-.2.3-.3.5a1.794,1.794,0,0,1-.7.5,3.6,3.6,0,0,1-1.1.2h-.4c-.3,0-.5.1-.8.1-.2.1-.3.2-.5.3a1.794,1.794,0,0,0-.5.7,1.7,1.7,0,0,0,0,1.6,2.652,2.652,0,0,0,.5.6l4.5,4,.1.1a.367.367,0,0,0,.3.1h.2a.367.367,0,0,0,.3-.1,1.38,1.38,0,0,0,.4-.3.749.749,0,0,0,.1-.5.367.367,0,0,0-.1-.3c.2-.3.2-.4.1-.4" transform="translate(0 -0.3)"/>
  <path id="Path_88" data-name="Path 88" d="M12.7,86.6c-.1-.1-.2-.2-.3-.2s-.2-.1-.4-.1H.9a.367.367,0,0,0-.3.1.349.349,0,0,0-.2.1l-.3.3a.6.6,0,0,0-.1.4.367.367,0,0,0,.1.3.349.349,0,0,0,.1.2c.1.1.2.2.3.2a.756.756,0,0,0,.4.1H5.6V98.8a.367.367,0,0,0,.1.3.349.349,0,0,0,.1.2l.3.3c.1.1.2.1.4.1a.367.367,0,0,0,.3-.1.349.349,0,0,0,.2-.1c.1-.1.2-.2.2-.3s.1-.2.1-.4V88H12a.367.367,0,0,0,.3-.1.349.349,0,0,0,.2-.1l.3-.3a.6.6,0,0,0,.1-.4.367.367,0,0,0-.1-.3.349.349,0,0,1-.1-.2" transform="translate(0 -0.3)"/>
  <path id="Path_89" data-name="Path 89" d="M17.3,86.7l-.3-.3a.6.6,0,0,0-.4-.1.756.756,0,0,0-.4.1.215.215,0,0,0-.2.2c-.1.1-.2.2-.2.3s-.1.2-.1.3V98.9a.367.367,0,0,0,.1.3.349.349,0,0,0,.1.2c.1.1.2.2.3.2.1.1.2.1.4.1a.367.367,0,0,0,.3-.1.349.349,0,0,0,.2-.1c.1-.1.2-.2.2-.3.1-.1.1-.2.1-.4V86.9c0-.1,0-.1-.1-.2" transform="translate(0 -0.3)"/>
  <path id="Path_90" data-name="Path 90" d="M31.5,98.3c-.1-.1-.2-.2-.3-.2a.756.756,0,0,0-.4-.1h-8V87.2a.367.367,0,0,0-.1-.3.349.349,0,0,0-.1-.2l-.3-.3a.6.6,0,0,0-.4-.1.367.367,0,0,0-.3.1.349.349,0,0,0-.2.1c-.1.1-.2.2-.2.3s-.1.2-.1.4V99.1a.349.349,0,0,0,.1.2c0,.1.1.1.2.2a.367.367,0,0,0,.3.1h9.2a.367.367,0,0,0,.3-.1.349.349,0,0,0,.2-.1l.3-.3a.6.6,0,0,0,.1-.4.367.367,0,0,0-.1-.3.349.349,0,0,1-.2-.1" transform="translate(0 -0.3)"/>
  <path id="Path_91" data-name="Path 91" d="M43.7,98.3c-.1-.1-.2-.2-.3-.2A.756.756,0,0,0,43,98H35V87.2a.367.367,0,0,0-.1-.3.349.349,0,0,0-.1-.2l-.3-.3c-.1-.1-.2-.1-.4-.1a.367.367,0,0,0-.3.1.349.349,0,0,0-.2.1c-.1.1-.2.2-.2.3s-.1.2-.1.4V99.1a.349.349,0,0,0,.1.2c0,.1.1.1.2.2a.367.367,0,0,0,.3.1H43a.367.367,0,0,0,.3-.1.349.349,0,0,0,.2-.1l.3-.3a.6.6,0,0,0,.1-.4.367.367,0,0,0-.1-.3.1.1,0,0,0-.1-.1" transform="translate(0 -0.3)"/>
  <path id="Path_92" data-name="Path 92" d="M56.8,92.8h0c0-.1-.1-.2-.1-.3s-.1-.1-.1-.2c-.1-.1-.2-.2-.3-.2s-.2-.1-.4-.1H50.8a.367.367,0,0,0-.3.1.349.349,0,0,0-.2.1c-.1.1-.2.2-.2.3a1.338,1.338,0,0,0-.1.5.367.367,0,0,0,.1.3c.1.1.2.3.3.4.1,0,.1.1.2.1h4.6v.1a4.671,4.671,0,0,1-.3,1.7,5.359,5.359,0,0,1-.5,1.1l-.6.6a5.387,5.387,0,0,1-1.3.7,4.844,4.844,0,0,1-1.8.3,6.648,6.648,0,0,1-2.1-.3,10.907,10.907,0,0,1-1.1-.6,4.349,4.349,0,0,1-.6-.7,3.387,3.387,0,0,1-.6-1.5,12.482,12.482,0,0,1-.2-2.1,7.316,7.316,0,0,1,.3-2.2c.2-.5.4-.9.6-1.3a2.336,2.336,0,0,1,.7-.7,3.088,3.088,0,0,1,1.4-.7,5.412,5.412,0,0,1,1.9-.3,6.622,6.622,0,0,1,1.5.1l.9.3A3.512,3.512,0,0,1,55.1,90h0a.349.349,0,0,0,.1.2c.1.1.2.2.3.2s.2.1.3.1a.756.756,0,0,0,.4-.1.215.215,0,0,0,.2-.2c.1,0,.1-.1.1-.2a.31.31,0,0,0,.1-.2v-.6h0a6.706,6.706,0,0,0-.9-1.4,6.47,6.47,0,0,0-.9-.8,5.094,5.094,0,0,0-1.7-.7,6.816,6.816,0,0,0-2.1-.2,8.807,8.807,0,0,0-2.9.5,9.5,9.5,0,0,0-1.7,1A5.1,5.1,0,0,0,44.8,90a10.069,10.069,0,0,0-.5,3.1,8.475,8.475,0,0,0,.4,2.9,8.865,8.865,0,0,0,.8,1.7,4.741,4.741,0,0,0,1,1,5.734,5.734,0,0,0,1.9,1,8.751,8.751,0,0,0,2.4.3,7.782,7.782,0,0,0,2.8-.5,8.272,8.272,0,0,0,1.6-.9,5.106,5.106,0,0,0,1.5-2.1,7.418,7.418,0,0,0,.5-2.5,2.843,2.843,0,0,1-.4-1.2h0" transform="translate(0 -0.3)"/>
  <path id="Path_93" data-name="Path 93" d="M67.4,85.2a1.077,1.077,0,0,0,.8.2,1.284,1.284,0,0,0,1-.4c.1-.1.2-.3.3-.4a1.85,1.85,0,0,0,0-1.2,1.024,1.024,0,0,0-.5-.6,1.077,1.077,0,0,0-.8-.2,1.268,1.268,0,0,0-.6.1,1.024,1.024,0,0,0-.6.5,1.884,1.884,0,0,0-.2.8.749.749,0,0,0,.1.5,1.157,1.157,0,0,0,.5.7" transform="translate(0 -0.3)"/>
  <path id="Path_94" data-name="Path 94" d="M72.6,98.4,67.1,87.3c-.1-.1-.1-.2-.3-.3a2.651,2.651,0,0,0-.6-.5,1.884,1.884,0,0,0-.8-.2,1.268,1.268,0,0,0-.6.1,1.612,1.612,0,0,0-.7.4,2.092,2.092,0,0,0-.4.6h0L58.2,98.5h0a.6.6,0,0,0-.1.4v.3c0,.1.1.1.1.2l.3.3a.6.6,0,0,0,.4.1h.2c.1,0,.2-.1.3-.2s.2-.2.2-.3h0l1.8-3.6h7.7l1.8,3.6h0c0,.1.1.1.1.2.1.1.2.2.3.2.1.1.2.1.4.1a.367.367,0,0,0,.3-.1.349.349,0,0,0,.2-.1c.1-.1.2-.2.2-.3s.1-.2.1-.3c.2-.3.1-.4.1-.6h0M62.4,93.9l2.8-5.7h0v-.1h.1l.1.1h0l2.8,5.7Z" transform="translate(0 -0.3)"/>
  <path id="Path_95" data-name="Path 95" d="M61.9,85.2a1.884,1.884,0,0,0,.8.2,1.284,1.284,0,0,0,1-.4c.1-.1.2-.3.3-.4a1.85,1.85,0,0,0,0-1.2,1.024,1.024,0,0,0-.5-.6,1.077,1.077,0,0,0-.8-.2.749.749,0,0,0-.5.1,1.47,1.47,0,0,0-.6.5,1.884,1.884,0,0,0-.2.8.749.749,0,0,0,.1.5,1.012,1.012,0,0,0,.4.7" transform="translate(0 -0.3)"/>
  <path id="Path_96" data-name="Path 96" d="M87.7,86.6c-.1-.1-.2-.2-.3-.2-.1-.1-.2-.1-.4-.1a.367.367,0,0,0-.3.1.349.349,0,0,0-.2.1c-.1.1-.2.2-.2.3-.1.1-.1.2-.1.4V98H86l-.1-.1L78.5,87.2h0l-.3-.3c-.2-.1-.3-.3-.6-.4a1.7,1.7,0,0,0-.7-.1c-.3,0-.5.1-.8.1-.2.1-.3.2-.5.3a1.794,1.794,0,0,0-.5.7,1.884,1.884,0,0,0-.2.8V98.9a.367.367,0,0,0,.1.3.349.349,0,0,0,.1.2l.3.3c.1.1.2.1.4.1a.367.367,0,0,0,.3-.1.349.349,0,0,0,.2-.1c.1-.1.2-.2.2-.3s.1-.2.1-.4V88.1h.2l.1.1,7.4,10.7h0l.3.3c.2.1.3.3.6.4a1.7,1.7,0,0,0,.7.1,1.483,1.483,0,0,0,.7-.1,1.779,1.779,0,0,0,.8-.7,2.016,2.016,0,0,0,.3-1.1V87.2a.367.367,0,0,0-.1-.3c.2-.1.2-.2.1-.3" transform="translate(0 -0.3)"/>
  <path id="Path_97" data-name="Path 97" d="M103.7,92.8h0c0-.1-.1-.2-.1-.3s-.1-.1-.1-.2c-.1-.1-.2-.2-.3-.2s-.2-.1-.4-.1H97.7a.367.367,0,0,0-.3.1.349.349,0,0,0-.2.1c-.1.1-.2.2-.2.3-.1.1-.1.2-.1.4a.367.367,0,0,0,.1.3c.1.1.2.3.3.4a.349.349,0,0,1,.2.1h4.6v.1a4.671,4.671,0,0,1-.3,1.7,5.359,5.359,0,0,1-.5,1.1l-.6.6a5.388,5.388,0,0,1-1.3.7,4.844,4.844,0,0,1-1.8.3,6.648,6.648,0,0,1-2.1-.3,10.907,10.907,0,0,1-1.1-.6,4.349,4.349,0,0,1-.6-.7,3.387,3.387,0,0,1-.6-1.5A12.482,12.482,0,0,1,93,93a7.316,7.316,0,0,1,.3-2.2c.2-.5.4-.9.6-1.3a2.336,2.336,0,0,1,.7-.7,3.088,3.088,0,0,1,1.4-.7,5.412,5.412,0,0,1,1.9-.3,6.622,6.622,0,0,1,1.5.1l.9.3a3.512,3.512,0,0,1,1.7,1.7h0a.349.349,0,0,0,.1.2c.1.1.2.2.3.2s.2.1.3.1a.756.756,0,0,0,.4-.1.215.215,0,0,0,.2-.2c.1,0,.1-.1.1-.2a.31.31,0,0,0,.1-.2v-.6h0a6.706,6.706,0,0,0-.9-1.4,6.47,6.47,0,0,0-.9-.8,5.094,5.094,0,0,0-1.7-.7,6.816,6.816,0,0,0-2.1-.2,8.807,8.807,0,0,0-2.9.5,9.5,9.5,0,0,0-1.7,1,5.1,5.1,0,0,0-1.6,2.4,10.069,10.069,0,0,0-.5,3.1,8.475,8.475,0,0,0,.4,2.9,8.864,8.864,0,0,0,.8,1.7,9.016,9.016,0,0,0,.9,1,5.734,5.734,0,0,0,1.9,1,8.751,8.751,0,0,0,2.4.3,7.008,7.008,0,0,0,4.4-1.4,5.106,5.106,0,0,0,1.5-2.1,7.418,7.418,0,0,0,.5-2.5,3.545,3.545,0,0,1-.3-1.1h0" transform="translate(0 -0.3)"/>
  <path id="Path_98" data-name="Path 98" d="M117.4,98.3c-.1-.1-.2-.2-.3-.2s-.2-.1-.4-.1h-8V87.2a.367.367,0,0,0-.1-.3.349.349,0,0,0-.1-.2l-.3-.3a.6.6,0,0,0-.4-.1.367.367,0,0,0-.3.1.349.349,0,0,0-.2.1c-.1.1-.2.2-.2.3s-.1.2-.1.4V99.1a.349.349,0,0,0,.1.2c0,.1.1.1.1.2a.367.367,0,0,0,.3.1h9.1a.367.367,0,0,0,.3-.1.349.349,0,0,0,.2-.1l.3-.3a.6.6,0,0,0,.1-.4.367.367,0,0,0-.1-.3c.2,0,.1-.1,0-.1" transform="translate(0 -0.3)"/>
  <path id="Path_99" data-name="Path 99" d="M121.6,86.7l-.3-.3a.6.6,0,0,0-.4-.1.756.756,0,0,0-.4.1.215.215,0,0,0-.2.2c-.1.1-.2.2-.2.3s-.1.2-.1.3V98.9a.367.367,0,0,0,.1.3.349.349,0,0,0,.1.2c.1.1.2.2.3.2.1.1.2.1.4.1a.367.367,0,0,0,.3-.1.349.349,0,0,0,.2-.1c.1-.1.2-.2.2-.3.1-.1.1-.2.1-.4V86.9c0-.1,0-.1-.1-.2" transform="translate(0 -0.3)"/>
  <path id="Path_100" data-name="Path 100" d="M137.9,92.8h0c0-.1-.1-.2-.1-.3s-.1-.1-.1-.2c-.1-.1-.2-.2-.3-.2s-.2-.1-.4-.1h-5a.367.367,0,0,0-.3.1.349.349,0,0,0-.2.1c-.1.1-.2.2-.2.3-.1.1-.1.2-.1.4a.367.367,0,0,0,.1.3c.1.1.2.3.3.4.1,0,.1.1.2.1h4.6v.1a4.671,4.671,0,0,1-.3,1.7,5.36,5.36,0,0,1-.5,1.1l-.6.6a5.387,5.387,0,0,1-1.3.7,4.844,4.844,0,0,1-1.8.3,6.648,6.648,0,0,1-2.1-.3,10.909,10.909,0,0,1-1.1-.6,4.35,4.35,0,0,1-.6-.7,3.387,3.387,0,0,1-.6-1.5,12.482,12.482,0,0,1-.2-2.1,7.316,7.316,0,0,1,.3-2.2c.2-.5.4-.9.6-1.3a2.336,2.336,0,0,1,.7-.7,3.088,3.088,0,0,1,1.4-.7,5.412,5.412,0,0,1,1.9-.3,6.622,6.622,0,0,1,1.5.1l.9.3a3.512,3.512,0,0,1,1.7,1.7h0a.349.349,0,0,0,.1.2c.1.1.2.2.3.2s.2.1.3.1a.756.756,0,0,0,.4-.1.215.215,0,0,0,.2-.2c.1,0,.1-.1.1-.2a.31.31,0,0,0,.1-.2v-.6h0a6.707,6.707,0,0,0-.9-1.4,6.471,6.471,0,0,0-.9-.8,5.094,5.094,0,0,0-1.7-.7,6.816,6.816,0,0,0-2.1-.2,8.807,8.807,0,0,0-2.9.5,9.5,9.5,0,0,0-1.7,1,5.1,5.1,0,0,0-1.6,2.4,10.069,10.069,0,0,0-.5,3.1,8.475,8.475,0,0,0,.4,2.9,8.864,8.864,0,0,0,.8,1.7,4.741,4.741,0,0,0,1,1,5.734,5.734,0,0,0,1.9,1,8.751,8.751,0,0,0,2.4.3,7.782,7.782,0,0,0,2.8-.5,8.272,8.272,0,0,0,1.6-.9,5.106,5.106,0,0,0,1.5-2.1,7.418,7.418,0,0,0,.5-2.5c-.4-.3-.4-.7-.5-1.1h0" transform="translate(0 -0.3)"/>
  <path id="Path_101" data-name="Path 101" d="M153.7,98.4l-5.4-11.1h0c-.1-.1-.2-.3-.3-.4a2.651,2.651,0,0,0-.6-.5,1.884,1.884,0,0,0-.8-.2,1.268,1.268,0,0,0-.6.1,1.612,1.612,0,0,0-.7.4,2.092,2.092,0,0,0-.4.6l-5.5,11.1h0a.6.6,0,0,0-.1.4.367.367,0,0,0,.1.3c0,.1.1.1.1.2l.3.3a.6.6,0,0,0,.4.1h.2c.1,0,.2-.1.3-.2s.2-.2.2-.3h0l1.8-3.6h7.7l1.8,3.6h0c0,.1.1.1.1.2.1.1.2.2.3.2.1.1.2.1.4.1a.367.367,0,0,0,.3-.1.349.349,0,0,0,.2-.1c.1-.1.2-.2.2-.3s.1-.2.1-.3a.9.9,0,0,0-.1-.5h0m-10.1-4.5,2.8-5.7h0v-.1h.1l.1.1,2.8,5.7Z" transform="translate(0 -0.3)"/>
  <path id="Path_102" data-name="Path 102" d="M178,86.6c-.2-.1-.3-.2-.5-.2a1.268,1.268,0,0,0-.6-.1,2.92,2.92,0,0,0-.9.2,1.024,1.024,0,0,0-.6.5l-4.1,5.4L167.2,87l-.3-.3c-.2-.1-.3-.3-.5-.3a1.7,1.7,0,0,0-.7-.1c-.3,0-.5.1-.8.1-.2.1-.3.2-.5.3a1.794,1.794,0,0,0-.5.7,1.884,1.884,0,0,0-.2.8V98.8a.367.367,0,0,0,.1.3.349.349,0,0,0,.1.2l.3.3a.6.6,0,0,0,.4.1.367.367,0,0,0,.3-.1.349.349,0,0,0,.2-.1c.1-.1.2-.2.2-.3s.1-.2.1-.4V88h.1l.1.1,4.8,6.3h0l.1.1a.349.349,0,0,0,.2.1c.1,0,.1,0,.2.1h.4c.1,0,.1,0,.2-.1.1,0,.1-.1.2-.1l.1-.1h0l4.8-6.3h0l.1-.1h.2l.1.1V98.8a.367.367,0,0,0,.1.3.349.349,0,0,0,.1.2l.3.3c.1.1.2.1.4.1a.864.864,0,0,0,.6-.3c.1-.1.1-.2.2-.3,0-.1.1-.2.1-.3V88.2a1.7,1.7,0,0,0-.1-.7,1.849,1.849,0,0,0-.7-.9" transform="translate(0 -0.3)"/>
  <path id="Path_103" data-name="Path 103" d="M192.2,88a.367.367,0,0,0,.3-.1.349.349,0,0,0,.2-.1l.3-.3a.6.6,0,0,0,.1-.4.367.367,0,0,0-.1-.3.349.349,0,0,0-.1-.2c-.1-.1-.2-.2-.3-.2s-.2-.1-.4-.1h-8.8a.756.756,0,0,0-.4.1.215.215,0,0,0-.2.2c-.1.1-.2.2-.2.3s-.1.2-.1.3v12a.349.349,0,0,0,.1.2c0,.1.1.1.1.2a.367.367,0,0,0,.3.1h9.1a.367.367,0,0,0,.3-.1.349.349,0,0,0,.2-.1l.3-.3a.6.6,0,0,0,.1-.4.367.367,0,0,0-.1-.3.349.349,0,0,0-.1-.2c-.1-.1-.2-.2-.3-.2s-.2-.1-.4-.1h-8V93.9h6.1a.367.367,0,0,0,.3-.1.349.349,0,0,0,.2-.1l.3-.3a.6.6,0,0,0,.1-.4.367.367,0,0,0-.1-.3.349.349,0,0,0-.1-.2c-.1-.1-.2-.2-.3-.2s-.2-.1-.4-.1h-6.1V88h8.1" transform="translate(0 -0.3)"/>
  <path id="Path_104" data-name="Path 104" d="M206.6,88.5a9.018,9.018,0,0,0-.9-1,5.076,5.076,0,0,0-1.8-.9,7.8,7.8,0,0,0-2.2-.3h-4.9a.367.367,0,0,0-.3.1.349.349,0,0,0-.2.1c-.1.1-.2.2-.2.3-.1.1-.1.2-.1.4V99.1a.349.349,0,0,0,.1.2c0,.1.1.1.2.2s.2.1.3.2h4.7a7.635,7.635,0,0,0,2.7-.5,5.854,5.854,0,0,0,1.7-1,6.576,6.576,0,0,0,1.7-2.3,7.306,7.306,0,0,0,.6-3,8.246,8.246,0,0,0-.4-2.8,14,14,0,0,1-1-1.6m-.9,6.6a3.458,3.458,0,0,1-.7,1.2,3.977,3.977,0,0,1-1.6,1.2,5.214,5.214,0,0,1-2.3.5h-3.6V88h4a6.013,6.013,0,0,1,2,.3,10.909,10.909,0,0,1,1.1.6,4.35,4.35,0,0,1,.6.7,3.506,3.506,0,0,1,.6,1.4,11.075,11.075,0,0,1,.2,1.9A6.873,6.873,0,0,1,205.7,95.1Z" transform="translate(0 -0.3)"/>
  <path id="Path_105" data-name="Path 105" d="M212.7,86.7l-.3-.3a.6.6,0,0,0-.4-.1.756.756,0,0,0-.4.1.215.215,0,0,0-.2.2c-.1.1-.2.2-.2.3s-.1.2-.1.3V98.9a.367.367,0,0,0,.1.3.349.349,0,0,0,.1.2c.1.1.2.2.3.2.1.1.2.1.4.1a.367.367,0,0,0,.3-.1.349.349,0,0,0,.2-.1c.1-.1.2-.2.2-.3.1-.1.1-.2.1-.4V86.9c-.1-.1-.1-.1-.1-.2" transform="translate(0 -0.3)"/>
  <path id="Path_106" data-name="Path 106" d="M226.4,88a.367.367,0,0,0,.3-.1.349.349,0,0,0,.2-.1l.3-.3a.6.6,0,0,0,.1-.4.367.367,0,0,0-.1-.3.349.349,0,0,0-.1-.2c-.1-.1-.2-.2-.3-.2s-.2-.1-.4-.1h-8.9a.756.756,0,0,0-.4.1.215.215,0,0,0-.2.2c-.1.1-.2.2-.2.3s-.1.2-.1.3v12a.349.349,0,0,0,.1.2c0,.1.1.1.2.2a.367.367,0,0,0,.3.1h9.2a.367.367,0,0,0,.3-.1.349.349,0,0,0,.2-.1l.3-.3a.6.6,0,0,0,.1-.4.367.367,0,0,0-.1-.3.349.349,0,0,0-.1-.2c-.1-.1-.2-.2-.3-.2s-.2-.1-.4-.1h-8V93.9h6.1a.367.367,0,0,0,.3-.1.349.349,0,0,0,.2-.1l.3-.3a.6.6,0,0,0,.1-.4.367.367,0,0,0-.1-.3.349.349,0,0,0-.1-.2c-.1-.1-.2-.2-.3-.2s-.2-.1-.4-.1h-6.1V88h8" transform="translate(0 -0.3)"/>
  <path id="Path_107" data-name="Path 107" d="M240.4,98.5c0-.1-.1-.2-.2-.3h0l-4.6-4h0V94a.1.1,0,0,1,.1-.1h.5a4.671,4.671,0,0,0,1.7-.3,2.075,2.075,0,0,0,1-.6,3.805,3.805,0,0,0,.9-1.3,4.146,4.146,0,0,0,.3-1.6,3.653,3.653,0,0,0-.3-1.5,2.664,2.664,0,0,0-.6-1,3.249,3.249,0,0,0-1.3-1,4.844,4.844,0,0,0-1.8-.3h-5.5a.367.367,0,0,0-.3.1.349.349,0,0,0-.2.1c-.1.1-.2.2-.2.3-.1.1-.1.2-.1.4V98.8a.367.367,0,0,0,.1.3.349.349,0,0,0,.1.2l.3.3c.1.1.2.1.4.1a.367.367,0,0,0,.3-.1.349.349,0,0,0,.2-.1c.1-.1.2-.2.2-.3s.1-.2.1-.4V88h4.6c.4,0,.7.1,1,.1a2.186,2.186,0,0,1,.5.3l.3.3a3.329,3.329,0,0,1,.3.6,1.949,1.949,0,0,1,.1.8c0,.4-.1.7-.1.9-.1.2-.2.3-.3.5a1.794,1.794,0,0,1-.7.5,3.6,3.6,0,0,1-1.1.2h-.4c-.3,0-.5.1-.8.1-.2.1-.3.2-.5.3a1.794,1.794,0,0,0-.5.7,1.7,1.7,0,0,0,0,1.6,2.652,2.652,0,0,0,.5.6l4.5,4,.1.1a.367.367,0,0,0,.3.1h.3a.367.367,0,0,0,.3-.1,1.38,1.38,0,0,0,.4-.3.749.749,0,0,0,.1-.5.188.188,0,0,0,0-.3" transform="translate(0 -0.3)"/>
</svg>
